<svg height="496pt" viewBox="0 0 496 496" width="496pt" xmlns="http://www.w3.org/2000/svg" xmlns:xlink="http://www.w3.org/1999/xlink"><linearGradient id="a" gradientUnits="userSpaceOnUse" x1="248" x2="248" y1="496" y2="0"><stop offset="0" stop-color="#9f2fff"/><stop offset="1" stop-color="#0bb1d3"/></linearGradient><path d="m344 232c-18.984375 0-35.761719 9.511719-45.886719 24h-34.113281v-51.335938c0-25.175781-16.96875-47.398437-41.265625-54.03125l-46.734375-12.746093v-12c14.488281-10.132813 24-26.910157 24-45.886719v-24c0-30.878906-25.121094-56-56-56s-56 25.121094-56 56v24c0 18.984375 9.511719 35.761719 24 45.886719v12l-46.734375 12.746093c-24.296875 6.632813-41.265625 28.855469-41.265625 54.03125v51.335938h-24v240h496v-240h-106.113281c-10.125-14.488281-26.902344-24-45.886719-24zm0 16c22.054688 0 40 17.945312 40 40v24c0 14.191406-7.664062 27.457031-20.007812 34.609375l-3.992188 2.3125v33.03125l62.894531 18.863281c10.234375 3.070313 17.105469 12.3125 17.105469 22.992188v56.191406h-192v-56.191406c0-10.679688 6.871094-19.921875 17.105469-22.992188l62.894531-18.863281v-33.03125l-3.992188-2.3125c-12.34375-7.152344-20.007812-20.417969-20.007812-34.609375v-24c0-22.054688 17.945312-40 40-40zm-125.480469-81.929688c17.359375 4.738282 29.480469 20.601563 29.480469 38.59375v51.335938h-32v-64h-16v64h-48v-89.0625c9.382812-2.488281 15.816406-8.90625 19.480469-13.699219zm-114.519531-86.070312v-24c0-22.054688 17.945312-40 40-40s40 17.945312 40 40v24c0 22.054688-17.945312 40-40 40s-40-17.945312-40-40zm40 56c5.558594 0 10.929688-.839844 16-2.359375v8.152344c-1.984375 3.070312-7.496094 10.207031-16 10.207031s-14.015625-7.144531-16-10.199219v-8.152343c5.070312 1.511718 10.441406 2.351562 16 2.351562zm-104 68.664062c0-17.992187 12.121094-33.855468 29.480469-38.59375l47.039062-12.832031c3.664063 4.792969 10.105469 11.210938 19.480469 13.699219v89.0625h-48v-64h-16v64h-32zm-24 67.335938h274.359375c-1.519531 5.070312-2.359375 10.441406-2.359375 16v24c0 18.304688 9.089844 35.488281 24 45.902344v12.144531l-51.496094 15.449219c-17.046875 5.113281-28.503906 20.511718-28.503906 38.3125v56.191406h-216zm464 0v208h-24v-56.191406c0-17.800782-11.457031-33.199219-28.503906-38.320313l-51.496094-15.441406v-12.144531c14.910156-10.414063 24-27.605469 24-45.902344v-24c0-5.558594-.839844-10.929688-2.359375-16zm-312-80h16v16h-16zm0 32h16v16h-16zm-96 64v176h144v-176zm128 160h-112v-144h112zm-16-112h-80v-16h80zm0 64h-80v-16h80zm0 32h-80v-16h80zm-48-64h-32v-16h32zm16-16h32v16h-32zm184-304h16v16h-16zm32 0h16v16h-16zm32 0h16v16h-16zm32 0h16v16h-16zm8-48h-96c-30.878906 0-56 25.121094-56 56 0 29.863281 23.503906 54.34375 52.976562 55.921875l-8.542968 39.910156 69.695312-39.832031h37.871094c30.878906 0 56-25.121094 56-56s-25.121094-56-56-56zm0 96h-42.128906l-42.304688 24.167969 5.1875-24.167969h-16.753906c-22.054688 0-40-17.945312-40-40s17.945312-40 40-40h96c22.054688 0 40 17.945312 40 40s-17.945312 40-40 40zm0 0" fill="url(#a)"/></svg>